<?xml version="1.0" encoding="UTF-8" standalone="no"?>
<!-- Created with Inkscape (http://www.inkscape.org/) -->

<svg
   xmlns:dc="http://purl.org/dc/elements/1.1/"
   xmlns:cc="http://creativecommons.org/ns#"
   xmlns:rdf="http://www.w3.org/1999/02/22-rdf-syntax-ns#"
   xmlns:svg="http://www.w3.org/2000/svg"
   xmlns="http://www.w3.org/2000/svg"
   xmlns:sodipodi="http://sodipodi.sourceforge.net/DTD/sodipodi-0.dtd"
   xmlns:inkscape="http://www.inkscape.org/namespaces/inkscape"
   width="744.09448819"
   height="1052.3622047"
   id="svg2"
   version="1.1"
   inkscape:version="0.47 r22583"
   sodipodi:docname="slepice.svg">
  <defs
     id="defs4">
    <inkscape:perspective
       sodipodi:type="inkscape:persp3d"
       inkscape:vp_x="0 : 526.18109 : 1"
       inkscape:vp_y="0 : 1000 : 0"
       inkscape:vp_z="744.09448 : 526.18109 : 1"
       inkscape:persp3d-origin="372.04724 : 350.78739 : 1"
       id="perspective10" />
    <inkscape:perspective
       id="perspective2906"
       inkscape:persp3d-origin="0.5 : 0.33333333 : 1"
       inkscape:vp_z="1 : 0.5 : 1"
       inkscape:vp_y="0 : 1000 : 0"
       inkscape:vp_x="0 : 0.5 : 1"
       sodipodi:type="inkscape:persp3d" />
    <inkscape:perspective
       id="perspective2956"
       inkscape:persp3d-origin="0.5 : 0.33333333 : 1"
       inkscape:vp_z="1 : 0.5 : 1"
       inkscape:vp_y="0 : 1000 : 0"
       inkscape:vp_x="0 : 0.5 : 1"
       sodipodi:type="inkscape:persp3d" />
    <inkscape:perspective
       id="perspective2978"
       inkscape:persp3d-origin="0.5 : 0.33333333 : 1"
       inkscape:vp_z="1 : 0.5 : 1"
       inkscape:vp_y="0 : 1000 : 0"
       inkscape:vp_x="0 : 0.5 : 1"
       sodipodi:type="inkscape:persp3d" />
    <inkscape:perspective
       id="perspective3000"
       inkscape:persp3d-origin="0.5 : 0.33333333 : 1"
       inkscape:vp_z="1 : 0.5 : 1"
       inkscape:vp_y="0 : 1000 : 0"
       inkscape:vp_x="0 : 0.5 : 1"
       sodipodi:type="inkscape:persp3d" />
  </defs>
  <sodipodi:namedview
     id="base"
     pagecolor="#ffffff"
     bordercolor="#666666"
     borderopacity="1.0"
     inkscape:pageopacity="0.0"
     inkscape:pageshadow="2"
     inkscape:zoom="0.98994949"
     inkscape:cx="166.85438"
     inkscape:cy="939.86369"
     inkscape:document-units="px"
     inkscape:current-layer="layer2"
     showgrid="false"
     inkscape:window-width="1600"
     inkscape:window-height="860"
     inkscape:window-x="0"
     inkscape:window-y="23"
     inkscape:window-maximized="1" />
  <metadata
     id="metadata7">
    <rdf:RDF>
      <cc:Work
         rdf:about="">
        <dc:format>image/svg+xml</dc:format>
        <dc:type
           rdf:resource="http://purl.org/dc/dcmitype/StillImage" />
        <dc:title></dc:title>
      </cc:Work>
    </rdf:RDF>
  </metadata>
  <g
     inkscape:label="Layer 1"
     inkscape:groupmode="layer"
     id="layer1">
    <path
       style="fill:none;stroke:#000000;stroke-width:1px;stroke-linecap:butt;stroke-linejoin:miter;stroke-opacity:1"
       d="m -36.195164,86.725406 -35.71429,43.571434 -19.28571,0 -2.85714,3.57143 -28.571426,2.14285 -15,7.14286 12.85714,-0.71428 1.42857,3.57142 42.857136,-1.42857 5.71429,5.71429 12.14286,-5.71429 7.85714,-4.28571 2.14286,-3.57143 14.28571,4.28571 5,-3.57142 -14.28571,-8.57143 28.57143,-43.571434 L -1.9094543,68.153976 28.090546,27.439696 49.519116,-2.5603043 0.23340567,-22.560304 -44.052304,7.4396957 l -6.42858,47.1428503 14.28572,32.14286 z"
       id="path2914" />
  </g>
  <g
     inkscape:groupmode="layer"
     id="layer2"
     inkscape:label="Layer 2">
    <path
       style="fill:none;stroke:#000000;stroke-width:1px;stroke-linecap:butt;stroke-linejoin:miter;stroke-opacity:1"
       d="m 15.633786,139.13712 -17.8571398,-11.42857 7.85714,-25 11.4285698,-27.857139 17.85714,-35 0.71429,-45.7142901 c 0,0 -28.5714298,-15.7142799 -32.1428598,-15.7142799 -3.57143,0 -45.7142802,28.5714299 -45.7142802,28.5714299 l -2.14286,37.1428501 32.14286,49.285718 3.5714302,7.142851 -15.0000002,29.28572 -46.42858,6.42857 -10,6.42857 0,2.14286 48.57143,-4.28572 -2.85714,7.85715 14.28571,-2.85715 12.8571502,-7.85714 17.8571398,5.71429 5,-4.28572 z"
       id="path2916" />
  </g>
  <g
     inkscape:groupmode="layer"
     id="layer3"
     inkscape:label="Layer 3">
    <path
       style="fill:none;stroke:#000000;stroke-width:1px;stroke-linecap:butt;stroke-linejoin:miter;stroke-opacity:1"
       d="m -202.44744,-73.399513 0.71429,32.85714 13.57143,25 27.85714,22.8571472 12.85714,12.1428518 12.85716,13.57143 37.857134,23.57143 30,21.42857 c 0,0 60.7142787,-2.85714 67.14285874,-7.14286 6.42856996,-4.28571 22.14285026,-5.71428 22.14285026,-5.71428 l 37.14286,-20.71429 18.57143,-45.7142818 -5.71429,-8.57143 24.28572,-17.8571372 9.999997,-25 22.14285,-17.14286 12.85715,-12.142859 -2.85715,-16.428574 -5.71428,-16.428574 c 0,0 -10,0.71428 -13.57143,0.71428 -3.57143,0 -91.428567,15.000004 -91.428567,15.000004 l -76.42857,3.571433 -55.714283,-9.285717 -17.14286,4.28571 -55.71429,13.571438 -25.71429,13.571429 z"
       id="path2920" />
  </g>
  <g
     inkscape:groupmode="layer"
     id="layer4"
     inkscape:label="Layer 4">
    <path
       style="fill:none;stroke:#000000;stroke-width:1px;stroke-linecap:butt;stroke-linejoin:miter;stroke-opacity:1"
       d="m -63.577261,-50.506586 -1.4375,4.3125 -7.84375,-1.4375 2.125,7.84375 -2.84375,0 1.4375,7.875 -4.28125,3.5625 -1.4375,7.84375 -5.71875,7.15625 -2.15625,5.0000002 3.59375,4.28125 6.40625,-2.84375 5.71875,-2.15625 10.71875,15 5,4.9999998 8.5625,-1.4374998 7.15625,6.4374998 20.71876,20 32.84374,-2.125 22.875,-22.875 1.40625,-22.125 -32.8437399,-21.4375 -46.4375101,-10 -11.40625,-1.4375 -12.15625,-6.4375 z m 2.84375,24.3125 5.71875,3.5625 c 0,0 -4.26786,6.4375 -7.125,6.4375 -2.85714,0 -3.59375,-5 -3.59375,-5 l 5,-5 z"
       id="path2912" />
  </g>
</svg>
