<?xml version="1.0" encoding="UTF-8" standalone="no"?>
<!-- Created with Inkscape (http://www.inkscape.org/) -->

<svg
   xmlns:dc="http://purl.org/dc/elements/1.1/"
   xmlns:cc="http://creativecommons.org/ns#"
   xmlns:rdf="http://www.w3.org/1999/02/22-rdf-syntax-ns#"
   xmlns:svg="http://www.w3.org/2000/svg"
   xmlns="http://www.w3.org/2000/svg"
   xmlns:sodipodi="http://sodipodi.sourceforge.net/DTD/sodipodi-0.dtd"
   xmlns:inkscape="http://www.inkscape.org/namespaces/inkscape"
   version="1.1"
   width="744.09448"
   height="1052.3622"
   id="svg3466"
   inkscape:version="0.47 r22583"
   sodipodi:docname="zebry.svg">
  <metadata
     id="metadata2832">
    <rdf:RDF>
      <cc:Work
         rdf:about="">
        <dc:format>image/svg+xml</dc:format>
        <dc:type
           rdf:resource="http://purl.org/dc/dcmitype/StillImage" />
      </cc:Work>
    </rdf:RDF>
  </metadata>
  <sodipodi:namedview
     pagecolor="#ffffff"
     bordercolor="#666666"
     borderopacity="1"
     objecttolerance="10"
     gridtolerance="10"
     guidetolerance="10"
     inkscape:pageopacity="0"
     inkscape:pageshadow="2"
     inkscape:window-width="1600"
     inkscape:window-height="860"
     id="namedview2830"
     showgrid="false"
     inkscape:zoom="0.48272354"
     inkscape:cx="83.733996"
     inkscape:cy="527.97199"
     inkscape:window-x="0"
     inkscape:window-y="23"
     inkscape:window-maximized="1"
     inkscape:current-layer="svg3466" />
  <defs
     id="defs3468">
    <inkscape:perspective
       sodipodi:type="inkscape:persp3d"
       inkscape:vp_x="0 : 526.18109 : 1"
       inkscape:vp_y="0 : 1000 : 0"
       inkscape:vp_z="744.09448 : 526.18109 : 1"
       inkscape:persp3d-origin="372.04724 : 350.78739 : 1"
       id="perspective2834" />
  </defs>
  <path
     style="fill:#000000"
     d="m 307.42546,572.7652 c -0.47856,-0.074 -2.54081,1.22946 -5,3.1875 -2.8105,2.23775 -7.5355,4.84677 -10.5,5.78125 -2.9645,0.93447 -5.40625,2.05044 -5.40625,2.5 0,1.39176 2.2944,0.91038 7.875,-1.6875 5.8753,-2.73509 13.125,-8.07383 13.125,-9.65625 0,-0.0688 -0.0254,-0.11443 -0.0937,-0.125 z"
     id="path3106" />
  <path
     style="fill:#000000"
     d="m 302.92546,565.10895 c -0.66959,0.0746 -1.90906,1.01456 -3.84375,2.875 -1.6762,1.61187 -5.425,4.12042 -8.3125,5.5625 -2.8875,1.44207 -5.25,2.85057 -5.25,3.15625 0,1.07281 5.2048,-0.75223 9.0625,-3.1875 2.1434,-1.35305 4.2036,-2.46875 4.5625,-2.46875 0.8927,0 4.375,-4.10769 4.375,-5.15625 0,-0.57302 -0.19199,-0.82602 -0.59375,-0.78125 z"
     id="path3104" />
  <path
     style="fill:#000000"
     d="m 70.175462,568.17145 c -3.03775,-0.008 -5.65625,0.22721 -5.65625,0.71875 0,0.46328 3.0375,1.28986 6.75,1.84375 3.7125,0.5539 7.58545,1.07345 8.59375,1.15625 2.6277,0.21582 1.50435,-2.15536 -1.40625,-2.96875 -1.7749,-0.49598 -5.2435,-0.74238 -8.28125,-0.75 z"
     id="path3102" />
  <path
     style="fill:#000000"
     d="m 296.64421,558.5152 c -0.7444,0.14204 -1.73775,0.98091 -3.40625,2.75 -1.8429,1.9541 -4.7965,4.30547 -6.5625,5.21875 -1.7661,0.91327 -2.9504,2.09842 -2.625,2.625 0.3255,0.52657 0.90125,0.9395 1.28125,0.9375 1.117,-0.006 6.4117,-3.5501 10.1875,-6.8125 2.7728,-2.39575 3.24835,-3.28855 2.28125,-4.28125 -0.36473,-0.37436 -0.70961,-0.52273 -1.15625,-0.4375 z"
     id="path3100" />
  <path
     style="fill:#000000"
     d="m 72.019212,562.0777 c -3.472213,0.0815 -6.5,0.42629 -6.5,0.96875 0,0.55 2.5875,1.0702 5.75,1.125 3.1625,0.0548 6.875,0.43465 8.25,0.875 3.66,1.17212 4,1.1479 4,-0.375 0,-0.76085 -1.0125,-1.66837 -2.25,-2 -1.86115,-0.49878 -5.777787,-0.67526 -9.25,-0.59375 z"
     id="path3098" />
  <path
     style="fill:#000000"
     d="m 313.92546,524.7652 c -0.33956,-0.0256 -0.51372,0.59026 -0.78125,1.65625 -0.3451,1.37463 -0.12415,5.98701 0.46875,10.25 1.075,7.72882 0.61165,16.50222 -1.21875,23.65625 -0.531,2.07519 -0.64595,4.25374 -0.28125,4.84375 0.7706,1.24691 9.34205,0.26436 10.90625,-1.25 0.55,-0.53249 0.9172,-4.87149 0.8125,-9.65625 -0.2201,-10.06514 -2.81625,-19.53674 -7.15625,-26.03125 -1.58456,-2.37114 -2.31342,-3.43586 -2.75,-3.46875 z"
     id="path3096" />
  <path
     style="fill:#000000"
     d="m 291.89421,552.23395 c -0.66966,0.10759 -2.58975,1.57215 -4.625,3.53125 -2.3259,2.23896 -5.2471,4.57692 -6.5,5.21875 -1.2529,0.64183 -2.0159,1.59362 -1.6875,2.125 0.6577,1.06422 1.0437,0.91003 7.1875,-3.25 4.2228,-2.85929 6.9545,-6.42051 5.8125,-7.5625 -0.0414,-0.0414 -0.0918,-0.0779 -0.1875,-0.0625 z"
     id="path3094" />
  <path
     id="path3092"
     d="m 301.75676,559.80619 c -0.7069,-0.86654 -0.4282,-3.55079 0.9087,-8.75 1.0607,-4.125 2.2084,-11.67706 2.5504,-16.78235 0.6403,-9.55805 1.5533,-10.92167 4.1101,-6.13868 2.051,3.83664 1.0272,20.11086 -1.7093,27.17103 -2.1978,5.67041 -3.8621,6.94855 -5.8599,4.5 z"
     style="fill:#000000" />
  <path
     style="fill:#000000"
     d="m 71.956712,554.54645 c -0.527447,0.0192 -0.9876,0.0788 -1.375,0.15625 -4.243,0.84861 -3.8179,2.3518 0.6875,2.375 2.0625,0.0106 6,0.62114 8.75,1.34375 4.8398,1.27173 7.3885,0.43398 4.375,-1.4375 -2.163175,-1.34339 -8.745372,-2.57178 -12.4375,-2.4375 z"
     id="path3090" />
  <path
     style="fill:#000000"
     d="m 285.95671,546.42145 c -0.76815,-0.0623 -1.7821,0.81552 -3.53125,2.9375 -1.6926,2.05339 -4.36825,4.42235 -5.96875,5.25 -1.6005,0.82765 -2.9375,1.93287 -2.9375,2.46875 0,2.65447 7.52055,-1.08744 11.40625,-5.6875 2.1945,-2.59795 2.6279,-3.71589 1.75,-4.59375 -0.21945,-0.21947 -0.4627,-0.35422 -0.71875,-0.375 z"
     id="path3088" />
  <path
     style="fill:#000000"
     d="m 71.300462,548.1402 c -1.49105,-4.5e-4 -1.799063,0.31936 -1.5625,1.03125 0.2679,0.80644 2.5299,1.65652 5.375,2.03125 2.705,0.35628 6.03125,1.11614 7.40625,1.6875 3.5145,1.46038 5,1.37667 5,-0.25 0,-1.79744 -4.3854,-3.31187 -12.125,-4.1875 -1.8756,-0.2122 -3.19912,-0.31223 -4.09375,-0.3125 z"
     id="path3086" />
  <path
     style="fill:#000000"
     d="m 280.01921,540.3277 c -1.42744,0.12768 -3.39754,1.15107 -5.71875,3.03125 -2.341,1.89617 -5.7484,4.20366 -7.5625,5.125 l -3.3125,1.6875 2.28125,1.84375 c 2.2322,1.80749 2.4026,1.79802 6.9375,-0.5 4.9034,-2.48473 10.22215,-7.95627 9.59375,-9.84375 -0.33626,-1.01011 -1.10852,-1.44305 -2.21875,-1.34375 z"
     id="path3084" />
  <path
     id="path3082"
     d="m 295.34196,552.43783 c -1.3701,-1.37015 -1.2901,-2.1119 0.7762,-7.19597 1.2671,-3.1176 2.8424,-9.60975 3.5007,-14.42701 0.6583,-4.81727 1.583,-8.75866 2.0549,-8.75866 0.4719,0 0.858,4.48312 0.858,9.96249 0,7.61811 -0.4859,11.2611 -2.0647,15.48099 -2.3924,6.39424 -3.0426,7.02068 -5.1251,4.93816 z"
     style="fill:#000000" />
  <path
     style="fill:#000000"
     d="m 74.112962,540.73395 c -0.307884,0.0117 -0.605419,0.0421 -0.84375,0.0937 -3.2303,0.7006 -1.7969,1.71648 6,4.3125 9.29204,3.09382 11.25,3.36789 11.25,1.5 0,-1.98064 -11.787983,-6.08231 -16.40625,-5.90625 z"
     id="path3080" />
  <path
     id="path3078"
     d="m 290.03816,547.06658 c -0.3364,-0.54429 0.7621,-5.12206 2.441,-10.17283 1.6789,-5.05076 3.0526,-11.13044 3.0526,-13.51038 0,-3.86558 1.1356,-5.62042 2.3148,-3.57718 0.8372,1.45061 -1.2866,14.82492 -3.4142,21.5 -2.0764,6.51465 -3.0993,7.85557 -4.3942,5.76039 z"
     style="fill:#000000" />
  <path
     style="fill:#000000"
     d="m 318.51921,512.2652 c -0.94585,0.0679 -1.43465,0.81389 -1.96875,2.21875 -0.8221,2.16235 -0.2586,3.15711 5,8.53125 6.5478,6.69167 8.97695,10.74122 11.46875,19.3125 0.9145,3.14594 1.97025,5.7049 2.34375,5.6875 0.8745,-0.0408 9.15625,-12.33909 9.15625,-13.59375 0,-2.11608 -13.44545,-15.49522 -18.90625,-18.8125 -3.89812,-2.36797 -5.87766,-3.43106 -7.09375,-3.34375 z"
     id="path3076" />
  <path
     style="fill:#000000"
     d="m 272.80046,532.54645 c -0.90462,0.025 -2.16869,0.97968 -4.9375,3.28125 -2.6587,2.21002 -6.38905,4.79505 -8.28125,5.75 -3.2482,1.63922 -3.3389,1.79482 -1.5625,3.09375 1.0348,0.75671 2.29205,1.375 2.78125,1.375 1.3262,0 11.121,-6.64748 13.25,-9 1.6963,-1.87438 1.7156,-2.19066 0.25,-3.65625 -0.5496,-0.5496 -0.95723,-0.85878 -1.5,-0.84375 z"
     id="path3074" />
  <path
     id="path3072"
     d="m 483.53176,545.20332 c 0,-2.89883 16.825,-4.22277 17.7552,-1.39713 0.3046,0.92548 -1.536,1.25 -7.0901,1.25 -4.1258,0 -8.2133,0.27314 -9.0833,0.60699 -0.87,0.33384 -1.5818,0.12691 -1.5818,-0.45986 z"
     style="fill:#000000" />
  <path
     style="fill:#000000"
     d="m 74.894212,533.17145 c -1.100487,0.11829 -1.375,0.67377 -1.375,1.75 0,1.48917 1.0386,2.00576 5,2.53125 2.7377,0.36316 6.9002,1.4941 9.25,2.5 3.00434,1.28605 4.46805,1.49784 4.96875,0.71875 0.9937,-1.54615 -5.57245,-5.29796 -11.46875,-6.5625 -3.34285,-0.71691 -5.274513,-1.05579 -6.375,-0.9375 z"
     id="path3070" />
  <path
     id="path3068"
     d="m 285.06246,541.10592 c -0.323,-0.52265 0.5854,-3.78515 2.0186,-7.25 1.4333,-3.46485 2.8597,-8.90002 3.1698,-12.07814 0.5646,-5.78596 1.8043,-8.12703 2.8545,-5.39025 0.9539,2.48578 -1.2447,15.03336 -3.5891,20.48296 -2.1891,5.08878 -3.2833,6.12932 -4.4538,4.23543 z"
     style="fill:#000000" />
  <path
     id="path3066"
     d="m 484.53176,538.08187 c 0,-0.53588 1.3276,-1.66088 2.9503,-2.5 3.2818,-1.69705 13.0497,-2.09053 13.0497,-0.52568 0,0.55 -1.8145,1 -4.0321,1 -2.2177,0 -5.6476,0.675 -7.6221,1.5 -4.2427,1.7727 -4.3458,1.78517 -4.3458,0.52568 z"
     style="fill:#000000" />
  <path
     style="fill:#000000"
     d="m 262.67546,520.73395 -2.65625,3.15625 c -1.4555,1.72983 -5.3052,4.77074 -8.5625,6.78125 -3.2573,2.0105 -5.9375,3.98722 -5.9375,4.375 0,0.38778 1.0125,1.18442 2.25,1.78125 1.2375,0.59682 2.75045,1.11905 3.34375,1.15625 1.3079,0.0821 8.60755,-4.72215 13.40625,-8.8125 l 3.5,-2.96875 -2.65625,-2.75 -2.6875,-2.71875 z"
     id="path3064" />
  <path
     style="fill:#000000"
     d="m 79.675462,526.04645 c -6.4423,0 -5.37115,2.49244 1.65625,3.875 3.1856,0.62672 7.3481,2.2427 9.25,3.5625 3.376,2.34267 5.7189,2.01697 4.6875,-0.625 -0.9084,-2.32715 -11.17655,-6.8125 -15.59375,-6.8125 z"
     id="path3062" />
  <path
     id="path3060"
     d="m 278.90126,534.57668 c -0.3123,-0.81373 0.3241,-3.40123 1.4141,-5.75 1.09,-2.34877 2.546,-7.08299 3.2357,-10.52049 0.802,-3.99731 1.7454,-6.25 2.6173,-6.25 1.6295,0 1.6412,0.22738 0.3657,7.11351 -1.2493,6.74448 -4.9464,16.88649 -6.1556,16.88649 -0.5002,0 -1.165,-0.66578 -1.4772,-1.47951 z"
     style="fill:#000000" />
  <path
     id="path3058"
     d="m 484.70496,532.03672 c 0.5244,-1.57324 8.0953,-3.94456 12.6601,-3.96535 4.6611,-0.0212 3.5855,2.32048 -1.4147,3.08019 -2.1552,0.32745 -5.6639,0.95088 -7.7971,1.38539 -2.9824,0.60751 -3.7791,0.49194 -3.4483,-0.50023 z"
     style="fill:#000000" />
  <path
     style="fill:#000000"
     d="m 253.95671,511.7027 c -1.36345,-0.0821 -3.05193,1.23739 -5.9375,4.0625 -2.7433,2.68579 -6.8,6.32795 -9,8.09375 -3.8579,3.09646 -3.90335,3.23972 -2.03125,4.6875 1.0676,0.82561 2.68135,1.5 3.59375,1.5 2.1169,0 8.3244,-4.5766 13.4375,-9.90625 3.1839,-3.31866 3.774,-4.45513 2.9375,-5.78125 -1.05853,-1.67814 -1.93954,-2.59237 -3,-2.65625 z"
     id="path3056" />
  <path
     style="fill:#000000"
     d="m 78.362962,518.10895 c -1.428672,0.04 -1.84375,0.40534 -1.84375,1.15625 0,0.97448 1.8446,1.89743 5.375,2.6875 2.9505,0.6603 7.338,2.47805 9.75,4.0625 5.378,3.53291 6.12535,3.65872 5.71875,0.84375 -0.4848,-3.35717 -8.41596,-7.80112 -15.1875,-8.5 -1.715775,-0.17709 -2.955297,-0.27399 -3.8125,-0.25 z"
     id="path3054" />
  <path
     id="path3052"
     d="m 270.53176,526.15788 c 0,-1.42667 6.2369,-18.50377 7.1287,-19.51891 3.3034,-3.76035 -0.01,12.39645 -3.726,18.16722 -1.4538,2.25777 -3.4027,3.03196 -3.4027,1.35169 z"
     style="fill:#000000" />
  <path
     id="path3050"
     d="m 482.94506,525.91599 c -0.808,-1.30741 -0.6886,-1.37515 4.7795,-2.71227 6.3764,-1.5592 10.3183,-1.44153 11.8072,0.35247 1.0803,1.30172 0.5338,1.5 -4.1342,1.5 -2.9584,0 -6.8325,0.41685 -8.6089,0.92633 -2.0764,0.5955 -3.4491,0.57174 -3.8436,-0.0665 l 0,-3e-5 z"
     style="fill:#000000" />
  <path
     style="fill:#000000"
     d="m 80.894212,507.0777 c -2.7086,-0.0124 -3.99425,3.8751 -1.53125,4.625 3.7138,1.13072 15.5438,6.95576 17.4375,8.59375 2.6111,2.25852 3.718748,2.23636 3.718748,-0.125 0,-3.81271 -13.868498,-13.06735 -19.624998,-13.09375 z"
     id="path3048" />
  <path
     style="fill:#000000"
     d="m 243.80046,499.2652 c -1.52585,0.0736 -3.44264,1.56949 -6.4375,4.625 -2.5747,2.62679 -7.2997,6.07148 -10.5,7.65625 -3.2003,1.58478 -6.06875,3.05329 -6.34375,3.28125 -0.275,0.22796 1.06455,1.71615 2.96875,3.3125 1.9042,1.59635 3.7856,2.90625 4.1875,2.90625 2.7063,0 16.08715,-10.33063 19.65625,-15.1875 1.0708,-1.45715 0.999,-2.18433 -0.375,-4.28125 -1.02957,-1.57134 -1.96948,-2.36971 -3.15625,-2.3125 z"
     id="path3046" />
  <path
     id="path3044"
     d="m 481.08056,519.13509 c -0.3517,-0.56893 1.6661,-1.62923 4.6658,-2.45177 7.5906,-2.08143 12.6546,-2.6477 13.3672,-1.49475 0.9186,1.48626 0.4815,1.6614 -7.1106,2.84947 -3.8342,0.6 -7.7208,1.31784 -8.637,1.59521 -0.9163,0.27736 -1.9447,0.0532 -2.2854,-0.49816 z"
     style="fill:#000000" />
  <path
     id="path3042"
     d="m 502.11306,519.18769 c -0.4788,-0.77459 0.6599,-1.13497 3.6097,-1.14251 2.3699,-0.006 6.109,-0.28966 8.309,-0.63023 2.9917,-0.46314 3.73,-0.32906 2.9291,0.5319 -1.5274,1.64183 -13.958,2.68066 -14.8478,1.24084 z"
     style="fill:#000000" />
  <path
     style="fill:#000000"
     d="m 323.83171,486.85895 -1.59375,6.34375 c -0.8782,3.48731 -1.29175,6.62212 -0.90625,6.96875 0.3856,0.34663 2.3519,1.16641 4.375,1.8125 4.9076,1.5673 15.39135,8.38067 20.28125,13.1875 2.171,2.13415 4.448,3.875 5.0625,3.875 0.6144,0 2.03185,-1.6875 3.15625,-3.75 1.1244,-2.0625 2.88025,-5.16088 3.90625,-6.90625 1.8286,-3.11019 1.82305,-3.22573 -0.0937,-5.34375 -6.2688,-6.92694 -19.9262,-14.01746 -29.8125,-15.5 l -4.375,-0.6875 z"
     id="path3040" />
  <path
     id="path3038"
     d="m 261.84306,515.30619 c 2.7087,-8.70544 5.636,-15.73243 6.7017,-16.08765 0.9749,-0.325 1.1388,0.51497 0.6672,3.42096 -0.8911,5.49084 -4.9323,14.37946 -6.5468,14.39962 -0.8451,0.0106 -1.1588,-0.65085 -0.8221,-1.73293 z"
     style="fill:#000000" />
  <path
     style="fill:#000000"
     d="m 81.706712,495.29645 c -0.530779,0.0152 -0.8429,0.26772 -1.15625,0.75 -1.7727,2.72813 -1.05685,3.8819 4.03125,6.4375 6.14504,3.08646 12.81075,7.62314 15.34375,10.4375 2.187198,2.43006 3.631498,1.93654 3.562498,-1.1875 -0.0573,-2.58712 -8.324858,-9.69801 -16.499998,-14.1875 -2.927312,-1.60761 -4.396618,-2.27525 -5.28125,-2.25 z"
     id="path3036" />
  <path
     id="path3034"
     d="m 478.53176,513.17751 c 0,-2.62338 5.0049,-4.46152 12.3859,-4.54892 7.5304,-0.0892 8.9805,1.68281 2.1141,2.58338 -2.75,0.36068 -6.9691,1.37318 -9.3757,2.25 -5.3935,1.96503 -5.1243,1.97997 -5.1243,-0.28446 z"
     style="fill:#000000" />
  <path
     id="path3032"
     d="m 500.72036,512.99041 c 0.1954,-0.58617 3.0454,-1.20202 6.3333,-1.36854 3.288,-0.16652 6.7656,-0.63506 7.7281,-1.04121 1.0708,-0.45184 1.75,-0.2992 1.75,0.39329 0,0.62246 -1.1543,1.5706 -2.5651,2.10699 -3.5282,1.34141 -13.7005,1.27189 -13.2463,-0.0905 l 0,-3e-5 z"
     style="fill:#000000" />
  <path
     style="fill:#000000"
     d="m 82.862962,484.5152 c -0.199287,0.009 -0.351281,0.0405 -0.4375,0.0937 -0.4946,0.30568 -0.86575,1.54496 -0.84375,2.75 0.0311,1.69917 1.5462,2.91641 6.75,5.4375 8.40254,4.07077 13.536598,7.83526 16.437498,12 1.2409,1.78138 2.7,3.07979 3.25,2.875 5.3497,-1.99195 9.5,-4.30925 9.5,-5.28125 0,-1.4873 -7.2016,-7.72514 -12.5,-10.84375 -4.22672,-2.48784 -19.166948,-7.16238 -22.156248,-7.03125 z"
     id="path3030" />
  <path
     id="path3028"
     d="m 476.03176,507.05619 c -0.3399,-0.55 -0.3612,-1.41559 -0.047,-1.92354 0.8639,-1.39779 9.3294,-3.88242 15.7972,-4.63651 4.6789,-0.54551 5.75,-0.39862 5.75,0.78856 0,1.03679 -2.5318,1.95514 -8.75,3.17374 -4.8125,0.94314 -9.1775,2.13847 -9.7,2.65628 -1.2259,1.21489 -2.2754,1.19475 -3.05,-0.0585 l -2e-4,-3e-5 z"
     style="fill:#000000" />
  <path
     id="path3026"
     d="m 500.53176,506.55619 c -1.0662,-1.2847 -0.743,-1.5 2.2518,-1.5 1.9232,0 5.4099,-0.675 7.7482,-1.5 5.2833,-1.86407 6,-1.86869 6,-0.0387 0,0.89569 -2.0055,2.05682 -5.1815,3 -6.5101,1.93328 -9.2381,1.94305 -10.8185,0.0387 z"
     style="fill:#000000" />
  <path
     style="fill:#000000"
     d="m 234.73796,488.2027 c -1.78487,-0.0416 -4.53597,0.85555 -9.8125,2.78125 -8.0334,2.93184 -20.68465,5.02928 -27.65625,4.59375 -2.0625,-0.12884 -3.75,0.093 -3.75,0.5 0,0.40699 3.0375,3.09869 6.75,5.96875 6.3758,4.92896 7.03205,5.17792 11.53125,4.75 5.8312,-0.55462 18.5362,-6.67672 23.875,-11.5 3.7006,-3.34332 3.81505,-3.61117 2.21875,-5.375 -0.98066,-1.08362 -1.76802,-1.68638 -3.15625,-1.71875 z"
     id="path3024" />
  <path
     id="path3022"
     d="m 251.53176,502.59408 c 0,-2.80373 3.2473,-12.53789 4.1826,-12.53789 1.3135,0 0.9465,3.62543 -0.833,8.22976 -1.985,5.1361 -3.3496,6.89118 -3.3496,4.30813 z"
     style="fill:#000000" />
  <path
     id="path3020"
     d="m 473.53176,500.35002 c 0,-2.57942 19.2334,-8.50369 22.0188,-6.78222 1.7859,1.10373 1.0182,3.44344 -1.2688,3.86686 -1.2375,0.22911 -5.175,0.90314 -8.75,1.49783 -3.575,0.5947 -7.7375,1.36828 -9.25,1.71906 -1.5125,0.35079 -2.75,0.2151 -2.75,-0.30153 z"
     style="fill:#000000" />
  <path
     id="path3018"
     d="m 500.26076,500.0132 c -2.8288,-1.72492 -1.0113,-2.95701 4.3621,-2.95701 2.7352,0 6.6028,-0.68091 8.5946,-1.51313 3.9094,-1.63348 4.8833,-1.41209 3.9931,0.90773 -1.019,2.65545 -13.9725,5.37793 -16.9498,3.56241 z"
     style="fill:#000000" />
  <path
     style="fill:#000000"
     d="m 97.019212,475.0777 c -2.9438,-0.0115 -7.5,2.31072 -7.5,3.84375 0,0.41837 2.5875,1.56661 5.75,2.53125 15.883498,4.84484 28.793448,11.26601 31.593748,15.75 1.4711,2.3557 2.82495,2.34106 7.78125,-0.1875 5.1587,-2.63173 4.8132,-4.48169 -1.625,-8.8125 -10.1751,-6.84441 -27.3304,-13.0912 -35.999998,-13.125 z"
     id="path3016" />
  <path
     id="path3014"
     d="m 470.53176,493.69347 c 0,-2.28766 12.5145,-7.78292 19.0801,-8.37826 5.5487,-0.50314 5.9199,-0.40268 5.9199,1.60209 0,1.63728 -0.6103,2.13889 -2.6025,2.13889 -1.4314,0 -6.632,1.35 -11.5569,3 -10.19,3.41398 -10.8406,3.51223 -10.8406,1.63728 z"
     style="fill:#000000" />
  <path
     id="path3012"
     d="m 499.19846,492.38952 c -1.9383,-1.93826 -0.1987,-3.12795 5.5198,-3.77492 3.4025,-0.38496 7.4302,-1.34308 8.9503,-2.12916 3.5768,-1.84961 3.8632,-1.81027 3.8632,0.53057 0,1.54271 -1.4058,2.39403 -6.6053,4 -6.7962,2.09913 -10.5615,2.54009 -11.728,1.37351 z"
     style="fill:#000000" />
  <path
     style="fill:#000000"
     d="m 252.36296,330.1402 c -0.18931,0.0203 -0.33017,0.0802 -0.40625,0.15625 -0.2757,0.2757 1.34505,2.467 3.59375,4.875 11.2458,12.04269 23.9367,33.27585 29.375,49.125 7.6561,22.31296 5.11355,50.03999 -6.46875,70.375 -1.6045,2.81695 -2.9375,5.58457 -2.9375,6.125 0,1.19456 12.0354,4.77165 21.1875,6.3125 3.6737,0.61849 11.6664,0.96844 17.75,0.78125 7.2784,-0.22396 11.19775,0.0413 11.46875,0.75 0.2265,0.59237 4.1588,2.32644 8.75,3.875 11.2552,3.79619 19.15245,7.69099 26.34375,12.96875 3.3,2.42189 6.52185,4.4543 7.15625,4.5 1.7956,0.12941 8.5749,-13.96038 7.9375,-16.5 -0.2999,-1.19453 -2.4673,-3.7513 -4.8125,-5.6875 -2.3453,-1.93619 -5.40625,-4.5434 -6.78125,-5.78125 -8.6163,-7.75683 -21.4201,-13.46288 -33.5625,-14.96875 -15.7504,-1.95331 -18.0619,-6.05081 -22.375,-39.59375 -1.377,-10.70932 -6.02835,-29.28073 -9.03125,-36.09375 -5.3131,-12.05449 -15.6485,-25.39782 -25.3125,-32.65625 -4.20244,-3.15631 -19.03536,-8.86679 -21.875,-8.5625 z"
     id="path3010" />
  <path
     style="fill:#000000"
     d="m 109.36296,460.8277 -3.875,3.78125 c -2.1292,2.07919 -3.65745,4.0935 -3.40625,4.5 0.2513,0.4065 3.24125,1.0724 6.65625,1.46875 12.4274,1.44235 24.60495,6.5112 32.21875,13.40625 3.0828,2.79185 6.0589,5.0625 6.625,5.0625 1.7363,0 8.9375,-3.97851 8.9375,-4.9375 0,-1.29924 -9.6368,-9.18417 -15.5,-12.6875 -7.1645,-4.28089 -17.22175,-8.08842 -24.96875,-9.4375 l -6.6875,-1.15625 z"
     id="path3008" />
  <path
     id="path3006"
     d="m 466.53176,488.06873 c 0,-2.68717 14.2226,-9.57948 21.8507,-10.58888 4.8308,-0.63924 5.3166,-0.53184 5,1.10536 -0.249,1.28757 -1.9455,2.17609 -5.8507,3.06417 -3.025,0.68792 -8.425,2.63552 -12,4.328 -6.8153,3.22652 -9,3.73418 -9,2.09135 z"
     style="fill:#000000" />
  <path
     id="path3004"
     d="m 464.53176,483.96648 c 0,-1.51085 3.1711,-4.14064 12.5167,-10.37997 8.5876,-5.73336 15.4833,-8.02729 15.4833,-5.15073 0,1.02316 -3.5236,3.38255 -9.75,6.52863 -5.3625,2.70956 -11.2999,6.08866 -13.1943,7.50912 -3.7344,2.80023 -5.0557,3.19041 -5.0557,1.49295 z"
     style="fill:#000000" />
  <path
     id="path3002"
     d="m 497.53176,483.07524 c 0,-1.34422 0.8839,-2.18001 2.75,-2.60028 7.2769,-1.63884 10.9751,-2.74471 13.4432,-4.01993 2.996,-1.54791 4.7746,-0.26994 2.8507,2.04825 -2.0359,2.45309 -11.6668,6.55291 -15.3936,6.55291 -2.9719,0 -3.6503,-0.36814 -3.6503,-1.98095 z"
     style="fill:#000000" />
  <path
     style="fill:#000000"
     d="m 198.73796,462.67145 c -0.11861,0.0163 -0.20298,0.0717 -0.25,0.125 -0.6946,0.78697 -2.96875,11.45353 -2.96875,13.9375 0,0.74689 1.2431,1.8333 2.75,2.40625 3.387,1.28772 16.1958,3.6963 22.25,4.1875 11.7252,0.9513 11.53635,1.00865 15.40625,-3.40625 1.9912,-2.27164 3.59375,-4.48434 3.59375,-4.90625 0,-0.4219 -2.8406,-1.23915 -6.3125,-1.84375 -8.3463,-1.45344 -21.57785,-5.47025 -28.46875,-8.625 -2.66866,-1.22179 -5.16973,-1.98948 -6,-1.875 z"
     id="path3000" />
  <path
     id="path2998"
     d="m 461.88946,479.54598 c -0.321,-0.83641 0.6307,-3.09692 2.1331,-5.0666 4.1306,-5.41554 16.482,-17.35779 19.6432,-18.9925 2.6329,-1.3615 2.9024,-1.30472 4.3589,0.91813 1.9925,3.04095 1.2726,4.78414 -2.905,7.03392 -1.8493,0.99592 -7.3507,5.35323 -12.2252,9.68291 -4.8745,4.32968 -9.2143,7.88614 -9.6441,7.90325 -0.4298,0.0171 -1.0422,-0.64849 -1.3609,-1.47911 z"
     style="fill:#000000" />
  <path
     style="fill:#000000"
     d="m 126.55046,446.5152 c -1.98315,-0.005 -3.47307,0.89639 -5.40625,2.59375 -1.9801,1.73857 -3.625,3.49334 -3.625,3.90625 0,0.4129 3.30355,1.7381 7.34375,2.9375 7.8526,2.33117 22.7919,10.85904 32.4375,18.53125 3.1557,2.51012 6.16875,4.54465 6.71875,4.53125 1.7375,-0.0423 4.5,-2.6086 4.5,-4.1875 0,-3.16757 -17.345,-16.7989 -30,-23.5625 -6.08603,-3.25272 -9.41899,-4.74318 -11.96875,-4.75 z"
     id="path2996" />
  <path
     style="fill:#000000"
     d="m 288.33171,341.0152 8.4375,8.28125 c 15.5148,15.1919 21.4722,27.00629 26.625,52.8125 2.1703,10.86925 5.26235,18.77274 8.53125,21.84375 1.2686,1.19177 5.9014,3.01362 10.6875,4.21875 14.5661,3.66771 30.93005,13.06853 41.28125,23.6875 l 4.84375,4.96875 -4.09375,8.15625 c -2.2566,4.47541 -4.125,8.52721 -4.125,9.03125 0,0.50404 1.9125,1.07697 4.25,1.25 2.3375,0.17335 4.593,0.17045 5,0 1.0823,-0.4533 14.1051,-18.20245 15.9375,-21.71875 0.8599,-1.65 3.3393,-6.375 5.5,-10.5 5.926,-11.31329 5.88675,-10.65503 0.65625,-12.96875 -2.5217,-1.11548 -5.10115,-2.03181 -5.71875,-2.03125 -0.6176,5.6e-4 -2.36205,2.25056 -3.90625,5 -1.5442,2.74944 -3.13325,5 -3.53125,5 -0.398,0 -3.43595,-2.7148 -6.71875,-6.0625 -10.7852,-10.99852 -19.5178,-16.3508 -34.125,-20.78125 -11.5309,-3.49743 -14.19295,-6.70149 -22.40625,-27.15625 -1.8771,-4.675 -4.9464,-11.2 -6.8125,-14.5 -1.8661,-3.3 -4.3373,-7.74319 -5.5,-9.875 -2.5107,-4.60357 -11.4151,-12.98366 -16.5,-15.53125 -1.9898,-0.99694 -6.92655,-2.10765 -10.96875,-2.46875 l -7.34375,-0.65625 z"
     id="path2994" />
  <path
     id="path2992"
     d="m 457.67986,474.33291 c -1.6867,-3.15161 -1.5288,-3.75583 2.8952,-11.08149 2.2239,-3.68238 4.8045,-8.83273 5.7347,-11.44523 1.808,-5.07727 2.6406,-5.45129 7.901,-3.54911 3.9632,1.4331 4.0914,2.42608 0.8911,6.90123 -1.3365,1.86883 -3.9941,5.64788 -5.9058,8.39788 -1.9117,2.75 -5.0266,6.78244 -6.922,8.96097 -3.3615,3.86371 -3.4743,3.9083 -4.5942,1.81575 z"
     style="fill:#000000" />
  <path
     id="path2990"
     d="m 405.14876,474.33991 c -0.3941,-0.39401 1.8934,-3.22892 5.0833,-6.2998 8.7509,-8.42455 12.2176,-13.77698 17.1534,-26.48383 1.818,-4.68031 2.144,-4.97946 5.099,-4.6787 1.7362,0.17672 4.8197,0.90113 6.852,1.6098 4.6432,1.61902 4.5257,3.14135 -1.0761,13.94623 -5.2586,10.14294 -15.9458,21.06606 -21.5113,21.98613 -5.0365,0.83262 -10.7271,0.79346 -11.6003,-0.0798 l 0,-3e-5 z"
     style="fill:#000000" />
  <path
     id="path2988"
     d="m 496.21026,474.40141 c -0.3732,-0.37323 -0.6785,-1.67746 -0.6785,-2.89834 0,-1.85038 0.7186,-2.32756 4.3182,-2.86735 2.375,-0.35615 7.1404,-1.98225 10.5898,-3.61354 3.4494,-1.6313 6.4861,-2.96599 6.7482,-2.96599 0.2622,0 0.3342,1.23473 0.1602,2.74385 -0.262,2.27224 -1.4336,3.29223 -6.8164,5.93429 -6.5977,3.23841 -13.0882,4.9003 -14.3215,3.66702 l 0,6e-5 z"
     style="fill:#000000" />
  <path
     id="path2986"
     d="m 432.53176,472.24328 c 0,-0.4471 1.4107,-2.1346 3.1349,-3.75 4.5913,-4.30162 11.3424,-15.21119 12.858,-20.77813 0.7249,-2.66257 1.9045,-5.06609 2.6213,-5.34116 1.2323,-0.47287 8.3858,1.41319 8.3858,2.21096 0,3.18978 -3.8341,12.82072 -7.6404,19.19206 -3.8904,6.51205 -5.4281,8.24288 -7.7328,8.70382 -4.2474,0.84947 -11.6268,0.6987 -11.6268,-0.23755 z"
     style="fill:#000000" />
  <path
     style="fill:#000000"
     d="m 108.36296,404.10895 c -0.89532,0.0207 -0.84825,0.4856 -0.4375,1.5625 2.0239,5.30603 9.9883,18.57502 11.4375,19.0625 9.7193,3.26915 22.6669,11.07245 31.625,19.0625 5.755,5.13309 15.6129,16.65853 17.75,20.75 0.5745,1.1 1.96655,3.0125 3.09375,4.25 2.4729,2.715 2.2473,2.72148 4.625,0.34375 1.9042,-1.9042 1.8886,-2.00046 -1.625,-7.75 -1.9568,-3.20202 -4.4906,-7.41875 -5.625,-9.34375 -1.1344,-1.925 -5.5806,-8.06517 -9.875,-13.65625 -14.8364,-19.31626 -31.04695,-30.72419 -48.21875,-33.90625 -1.33609,-0.24758 -2.21281,-0.38742 -2.75,-0.375 z"
     id="path2984" />
  <path
     id="path2982"
     d="m 493.16206,462.80619 c -0.92,-3.43297 -0.9055,-3.45037 3.4523,-4.14722 5.1663,-0.82612 12.6942,-4.62951 15.8417,-8.00379 3.2858,-3.52248 4.0757,-3.27849 4.0757,1.25887 0,3.62426 -0.3482,4.06971 -5.75,7.35623 -10.0765,6.13068 -16.5749,7.43476 -17.6197,3.53591 z"
     style="fill:#000000" />
  <path
     style="fill:#000000"
     d="m 211.20671,435.4527 13.71875,5.625 c 0.27958,-0.99002 0.92165,-2.71751 2.0625,-4.96875 6.2195,-12.27378 8.53125,-23.08983 8.53125,-39.90625 0,-10.68905 -0.39565,-14.16474 -2.53125,-21.53125 -3.5363,-12.198 -10.119,-25.59959 -16.5,-33.65625 -4.5116,-5.69642 -17.66565,-16.23829 -23.96875,-19.21875 -5.1482,-2.43434 -20.40725,-5.62402 -21.53125,-4.5 -0.2793,0.27923 2.5455,2.32455 6.3125,4.5625 6.4284,3.81902 19.96155,16.14617 24.96875,22.75 4.0845,5.38678 9.1731,16.0351 12.9375,27.0625 3.602,10.55164 3.73125,11.32586 3.78125,25.375 0.0437,12.27918 -0.3324,15.87844 -2.375,23.5 -2.44011,9.10504 -4.29509,14.10704 -5.40625,14.90625 z"
     id="path3306" />
  <path
     style="fill:#000000"
     d="m 204.76921,432.8902 -6.65625,10.15625 c 0.71563,-0.48504 1.57143,-0.28841 2.875,0.90625 4.065,3.72541 19.9481,11.45672 32.375,15.75 6.9661,2.40665 13.3016,4.26916 14.0625,4.125 0.7608,-0.14415 2.1109,-1.62805 3,-3.28125 0.8891,-1.65321 3.46065,-5.92821 5.71875,-9.5 4.3735,-6.91781 9.0564,-17.0063 12.0625,-26 1.4082,-4.2129 1.8125,-8.54223 1.8125,-18.5 0,-12.72713 -0.0879,-13.26238 -4.3125,-25.5 -6.4045,-18.55196 -20.7394,-41.27451 -32.125,-50.875 -4.3702,-3.685 -6.05195,-4.39619 -13.21875,-5.65625 -4.5104,-0.793 -8.31795,-1.30704 -8.46875,-1.15625 -0.1507,0.1508 3.1994,3.43412 7.4375,7.3125 8.322,7.61565 18.67095,22.06861 24.09375,33.59375 5.5989,11.89926 7.38475,20.57857 7.46875,36.28125 0.0859,16.11409 -0.9719,21.28352 -7.75,37 -4.266,9.89168 -4.36975,10.00905 -7.53125,9.75 -3.7313,-0.30576 -11.09375,-3.80439 -11.09375,-5.28125 0,-0.0889 0.35316,-0.74949 0.40625,-0.9375 l -13.71875,-5.625 c -0.15874,0.11417 -0.34276,0.41435 -0.46875,0.34375 -0.3893,-0.21809 -2.14455,-1.0254 -3.90625,-1.78125 -0.99673,-0.42762 -1.61446,-0.7614 -2.0625,-1.125 z"
     id="path3304" />
  <path
     style="fill:#000000"
     d="m 150.80046,316.04645 c -9.5716,0 -22.28125,2.91235 -22.28125,5.09375 0,0.45742 1.5192,1.23758 3.375,1.75 9.1965,2.53926 27.89785,18.58129 39.21875,33.65625 12.3195,16.4047 20.78915,43.11651 24.53125,77.34375 0.8027,7.34148 1.4263,10.01128 2.1875,9.25 0.0826,-0.0826 0.19416,-0.0347 0.28125,-0.0937 l 6.65625,-10.15625 c -0.9514,-0.77211 -0.90217,-1.77589 -0.4375,-4.78125 0.3867,-2.50162 0.67725,-11.7625 0.65625,-20.5625 -0.0355,-15.10213 -0.2324,-16.64534 -3.375,-27.5 -3.569,-12.32723 -4.3546,-14.24599 -9.9375,-23.5 -8.1558,-13.51863 -20.1579,-27.93787 -30.75,-36.96875 -3.7168,-3.16892 -4.7208,-3.53125 -10.125,-3.53125 z"
     id="path2980" />
  <path
     style="fill:#000000"
     d="m 98.394212,367.04645 0.59375,5.75 c 1.355098,12.6909 0.7522,11.72049 8.812498,14.0625 11.4985,3.34101 25.57035,10.43027 32.09375,16.15625 12.3597,10.84881 24.642,27.42823 33.875,45.78125 3.943,7.8375 7.3654,14.25 7.625,14.25 1.2802,0 4.125,-3.5096 4.125,-5.09375 0,-2.4797 -6.99585,-18.26114 -13.71875,-30.90625 -14.0417,-26.41117 -29.41545,-44.27702 -45.03125,-52.3125 -10.1774,-5.23699 -17.8448,-7.6875 -24,-7.6875 l -4.374998,0 z"
     id="path2978" />
  <path
     style="fill:#000000"
     d="m 113.64421,331.42145 c -0.90705,0.0755 -1.52295,0.62282 -2.65625,1.6875 -2.1869,2.05449 -6.32245,9.74856 -7.84375,14.59375 -0.6196,1.97316 0.0911,2.43816 8.625,5.28125 5.1266,1.7079 12.40125,4.89946 16.15625,7.09375 3.755,2.19429 7.2457,3.96875 7.75,3.96875 1.7042,0 20.45495,19.44773 25.15625,26.09375 7.0767,10.00427 10.1292,16.57394 20.625,44.40625 1.037,2.75 2.64395,7.475 3.59375,10.5 0.9497,3.025 2.1554,6.625 2.6875,8 l 0.96875,2.5 2.34375,-2.9375 c 2.6747,-3.35258 2.71665,-2.92438 -1.71875,-21.4375 -4.5072,-18.81263 -9.1369,-31.09124 -18.125,-48.03125 -7.3398,-13.83317 -9.16365,-16.45989 -17.90625,-25.625 -11.7275,-12.29435 -24.5203,-21.35718 -35.25,-25 -2.2955,-0.77934 -3.4992,-1.16923 -4.40625,-1.09375 z"
     id="path2976" />
  <path
     id="path2974"
     d="m 488.33206,451.02866 c -9.2162,-1.55368 -9.2411,-3.60542 -0.05,-4.13769 8.1135,-0.46989 14.1948,-3.18148 21.1407,-9.42646 l 4.9295,-4.43201 0.6909,4.08981 c 1.0241,6.06125 -2.3629,9.21797 -14.3869,13.40877 -4.7483,1.65498 -5.3213,1.67811 -12.3239,0.49758 l -3e-4,0 z"
     style="fill:#000000" />
  <path
     id="path2972"
     d="m 469.78176,444.92187 c -4.6684,-1.32564 -4.011,-2.50707 1.826,-3.28137 9.9721,-1.32285 21.4218,-8.91121 27.6636,-18.33431 0.8197,-1.2375 1.9861,-2.25 2.592,-2.25 2.145,0 9.6684,3.28569 9.6684,4.22248 0,1.96574 -10.8069,11.39797 -16.5398,14.43588 -8.9908,4.76431 -19.2834,6.8903 -25.2102,5.20732 z"
     style="fill:#000000" />
  <path
     id="path2970"
     d="m 451.28176,439.80179 c -2.6125,-0.52908 -4.75,-1.31086 -4.75,-1.73728 0,-0.42643 2.8125,-0.96881 6.25,-1.20528 9.3255,-0.64152 16.6948,-4.58297 25.9957,-13.90366 7.4418,-7.45766 7.8708,-7.72637 10.9326,-6.84826 1.7527,0.50269 3.6247,1.35192 4.16,1.88718 1.3717,1.37166 -6.451,11.24004 -12.3323,15.55728 -7.1574,5.25405 -21.0269,8.11907 -30.256,6.25002 z"
     style="fill:#000000" />
  <path
     id="path2968"
     d="m 421.53176,431.64275 c -12.1022,-4.58378 -13.9964,-6.58214 -6.25,-6.59357 10.6926,-0.0158 39.0991,-8.76641 50.4848,-15.5519 4.2541,-2.53531 10.0306,-6.85771 12.8367,-9.60533 2.806,-2.74762 5.3219,-4.77568 5.5908,-4.50679 0.2689,0.26889 -1.2326,4.42206 -3.3367,9.22926 -6.3399,14.48479 -16.2495,23.10316 -30.9745,26.93855 -7.1221,1.85507 -23.553,1.9071 -28.3511,0.0898 l 0,-2e-5 z"
     style="fill:#000000" />
  <path
     style="fill:#000000"
     d="m 324.58171,332.4527 c -1.69952,-9.3e-4 -2.89272,0.64703 -5,2.40625 -1.8991,1.58544 -3.0744,3.34279 -2.6875,3.96875 0.3794,0.6139 3.13745,2.52285 6.15625,4.25 7.8841,4.51081 17.97935,16.68391 29.71875,35.84375 4.3552,7.10826 8.7893,10.25209 20,14.21875 4.2543,1.5053 9.2957,3.70581 11.1875,4.875 4.4536,2.75247 13.9508,13.0605 18.25,19.78125 1.8549,2.89969 3.57065,5.25 3.78125,5.25 0.6908,0 8.0997,-13.39027 9.875,-17.84375 0.9549,-2.39537 1.48025,-5.19785 1.15625,-6.21875 -0.3241,-1.0209 -4.41705,-5.43696 -9.09375,-9.8125 -7.4638,-6.9832 -10.37415,-8.85682 -23.78125,-15.46875 -15.7577,-7.77127 -17.93505,-9.4394 -26.84375,-20.375 -8.2662,-10.14699 -21.5328,-19.03045 -30.8125,-20.65625 -0.73273,-0.12838 -1.33974,-0.21844 -1.90625,-0.21875 z"
     id="path2966" />
  <path
     id="path2964"
     d="m 420.28206,399.47321 c -0.3206,-0.32064 1.0669,-4.12523 3.0834,-8.45464 2.5433,-5.46061 4.2152,-7.88554 5.4585,-7.91701 5.0679,-0.12829 17.7374,-3.5698 26.42,-7.1767 19.6587,-8.16657 29.3375,-17.0324 36.2872,-33.23908 2.0609,-4.80606 4.1416,-8.82634 4.6238,-8.93394 1.583,-0.35323 3.4665,9.6627 3.1602,16.80435 -0.2204,5.13985 -1.0177,8.46155 -3.0003,12.5 -4.3534,8.86779 -10.3882,17.51936 -14.4781,20.75595 -6.4262,5.08539 -16.4591,10.03453 -23.805,11.74284 -13.6313,3.16998 -36.1596,5.50831 -37.7497,3.91823 z"
     style="fill:#000000" />
  <path
     id="path2962"
     d="m 86.531725,385.09005 c -5.5244,-0.74162 -16,-4.66363 -16,-5.99034 0,-1.72875 1.51,-1.85403 4.877,-0.4046 5.9173,2.54726 9.3136,3.48912 15.12304,4.19387 3.025,0.36696 5.5,1.11721 5.5,1.66721 0,1.29627 -2.6933,1.44762 -9.50004,0.53386 z"
     style="fill:#000000" />
  <path
     id="path2960"
     d="m 82.093425,375.96853 c -6.9728,-1.89827 -9.5084,-3.29896 -8.25,-4.55737 0.609,-0.60902 4.5119,0.29937 11.6883,2.72038 1.375,0.46388 4.18754,1.13677 6.25004,1.49532 2.0625,0.35855 3.75,1.05183 3.75,1.54062 0,1.39014 -5.8426,0.86886 -13.43834,-1.19895 z"
     style="fill:#000000" />
  <path
     style="fill:#000000"
     d="m 347.23796,310.1402 c -9.09158,0.12346 -16.63181,1.78786 -17.3125,4.5 -1.2866,5.12609 -0.22345,6.56052 6.59375,8.875 3.575,1.21373 9.8272,3.86012 13.875,5.875 4.0478,2.01489 7.8723,3.65625 8.5,3.65625 0.6277,0 4.9383,2.475 9.5625,5.5 4.6242,3.025 8.51535,5.5 8.65625,5.5 0.7644,0 19.7375,13.2297 34.75,24.21875 3.2156,2.35378 7.4906,5.50132 9.5,6.96875 2.0094,1.46742 4.14455,2.7049 4.71875,2.75 0.5741,0.0451 2.281,-3.76604 3.8125,-8.46875 l 2.78125,-8.5625 -4.5625,-5.34375 c -3.6878,-4.31657 -18.5913,-18.4372 -23.0625,-21.84375 -0.5631,-0.429 -3.95625,-2.99016 -7.53125,-5.71875 -3.575,-2.72858 -7.0048,-4.96375 -7.625,-4.96875 -0.6201,-0.005 -1.67405,-0.69309 -2.34375,-1.5 -2.204,-2.65562 -15.44885,-8.26062 -23.40625,-9.90625 -5.42689,-1.12231 -11.4513,-1.60532 -16.90625,-1.53125 z"
     id="path2958" />
  <path
     id="path2956"
     d="m 87.531725,371.9115 c -8.4916,-2.33959 -12,-4.1225 -12,-6.09816 0,-1.16168 0.5133,-1.77752 1.25,-1.49967 0.6875,0.25931 5.1875,1.75021 10,3.31311 11.33364,3.68071 11.98104,7.37907 0.75,4.28472 z"
     style="fill:#000000" />
  <path
     id="path2954"
     d="m 85.618825,364.00494 c -8.3373,-2.1832 -8.5497,-2.30088 -7.7791,-4.3091 0.4685,-1.22091 1.8145,-1.08046 8.6274,0.90025 8.84794,2.57234 10.06464,3.11863 10.06464,4.51912 0,1.34819 -2.493,1.09456 -10.91294,-1.11027 z"
     style="fill:#000000" />
  <path
     id="path2952"
     d="m 87.531725,358.90929 c -7.2909,-2.28213 -8.9058,-3.34731 -7.3831,-4.86998 0.6892,-0.68918 3.0514,-0.36691 7.3302,1 3.47244,1.10928 6.88174,2.01688 7.57624,2.01688 1.4076,0 2.6722,2.47115 1.7411,3.40223 -0.8907,0.89074 -2.1334,0.68296 -9.26444,-1.54913 z"
     style="fill:#000000" />
  <path
     id="path2950"
     d="m 435.79116,356.96168 c 0.3048,-1.32302 1.1162,-6.45549 1.8029,-11.40549 0.6868,-4.95 1.6599,-9.53357 2.1623,-10.18572 0.5025,-0.65215 2.345,-1.46376 4.0945,-1.80359 6.9308,-1.34625 17.0732,-6.8473 21.7925,-11.81985 3.3627,-3.54316 7.7266,-11.77352 8.4206,-15.88158 0.354,-2.09509 1.1853,-3.80926 1.8475,-3.80926 1.316,0 8.343,7.02702 10.9725,10.97251 5.1027,7.65663 -3.1376,25.11418 -16.6989,35.37744 -8.3941,6.35264 -16.97,9.58883 -27.5507,10.39641 l -7.3975,0.56462 0.5543,-2.40549 z"
     style="fill:#000000" />
  <path
     id="path2948"
     d="m 87.281725,351.89609 c -3.2297,-1.42438 -4.75,-2.69419 -4.75,-3.96739 0,-1.02988 0.3288,-1.87251 0.7306,-1.87251 1.4251,0 14.21924,6.512 14.24414,7.25 0.049,1.43663 -5.5072,0.67044 -10.22474,-1.4101 z"
     style="fill:#000000" />
  <path
     id="path2946"
     d="m 92.235165,345.96851 c -5.78014,-2.983 -7.76624,-5.2495 -6.07884,-6.93697 0.5203,-0.52029 2.96494,0.53183 5.88284,2.53187 2.7459,1.88214 5.5551,3.43798 6.2426,3.45743 0.6875,0.0194 1.25,0.93535 1.25,2.03535 0,2.55393 -0.3378,2.50357 -7.2966,-1.08768 z"
     style="fill:#000000" />
  <path
     id="path2944"
     d="m 96.031765,338.66919 c -6.7854,-4.45897 -7.92514,-5.95015 -6.5342,-8.54908 0.6075,-1.13515 1.2608,-2.06392 1.4517,-2.06392 0.191,0 2.0876,1.69974 4.2148,3.7772 2.1273,2.07746 4.909395,4.43996 6.182695,5.25 1.597,1.01598 2.1066,2.0156 1.643,3.2228 -0.8744,2.27701 -1.073,2.23026 -6.957995,-1.637 z"
     style="fill:#000000" />
  <path
     id="path2942"
     d="m 291.19836,339.00954 c -12.9211,-2.16914 -35.9755,-12.47163 -47.6652,-21.30045 -3.0242,-2.28409 -7.2992,-5.32013 -9.5,-6.74674 -6.3528,-4.11808 -19.9473,-18.12954 -24.9337,-25.69855 -2.5123,-3.8133 -4.5677,-7.18424 -4.5677,-7.49098 0,-0.30675 1.2947,-0.84208 2.8771,-1.18963 2.3466,-0.51542 4.0518,0.18832 9.25,3.81761 8.8335,6.16745 22.8561,13.22594 32.3729,16.2954 9.7017,3.1291 27.0005,4.22647 38.4601,2.43978 12.3862,-1.93116 30.8466,-8.75401 38.3062,-14.15776 4.8462,-3.51055 5.9232,-3.64706 5.302,-0.67203 -0.2584,1.2375 -0.7528,6.13169 -1.0985,10.87597 l -0.6287,8.62598 -8.1705,4.04068 c -12.7847,6.32253 -28.7314,9.0936 -41.623,7.23285 -15.9942,-2.30857 -23.9599,-4.87774 -36.5476,-11.78768 -13.5673,-7.44766 -20.02,-12.1792 -32.75,-24.01443 -1.5125,-1.40619 -2.75,-2.10775 -2.75,-1.55904 0,1.15294 11.9437,12.77528 20,19.46192 14.3315,11.89494 37.0996,24.02286 49.658,26.45137 11.7917,2.28026 25.8975,1.95578 38.1608,-0.87782 l 10.3188,-2.38429 -0.5768,2.29814 c -1.973,7.86098 -6.7914,12.14174 -17.331,15.39709 -6.8425,2.11342 -8.8936,2.23015 -16.5632,0.94261 z"
     style="fill:#000000" />
  <path
     id="path2940"
     d="m 102.33466,333.42092 c -3.842495,-2.02754 -9.802895,-9.3151 -9.802895,-11.98571 0,-3.26594 1.5612,-3.74424 3.6699,-1.12433 1.0066,1.25056 4.166295,4.22809 7.021595,6.61675 4.5518,3.80783 5.0459,4.57624 4.0095,6.23578 -1.351,2.16318 -1.2923,2.1601 -4.8981,0.25751 z"
     style="fill:#000000" />
  <path
     style="fill:#000000"
     d="m 373.51921,280.5777 c -18.6175,0.0371 -22.2752,0.97544 -34.625,8.71875 -6.2781,3.93611 -6.375,4.03096 -6.375,8.46875 0,3.9009 0.2314,4.40226 1.75,3.75 10.138,-4.35443 16.3899,-5.76042 27.25,-6.1875 22.2782,-0.87609 38.1204,5.51201 64.3125,25.96875 6.153,4.80574 11.525,8.743 11.9375,8.75 1.0537,0.0173 0.912,-16.66551 -0.1875,-21.40625 -0.5004,-2.15774 -1.6282,-4.32465 -2.5,-4.8125 -0.8718,-0.48786 -4.3853,-3.03272 -7.8125,-5.65625 -6.5649,-5.02545 -8.8794,-6.41128 -17.6875,-10.59375 -12.4302,-5.90244 -18.2368,-7.0355 -36.0625,-7 z"
     id="path2938" />
  <path
     id="path2936"
     d="m 107.03176,323.86031 c -4.5918,-2.4193 -9.247795,-7.2747 -10.118495,-10.55188 -0.6043,-2.27438 1.6022,-9.24812 3.0295,-9.57484 0.426195,-0.0976 1.334595,1.45057 2.018695,3.44032 2.2334,6.49672 5.6706,10.8991 10.794,13.82521 4.6479,2.65454 4.8619,2.94087 2.959,3.95928 -2.8055,1.50147 -4.0467,1.3445 -8.6827,-1.09809 z"
     style="fill:#000000" />
  <path
     id="path2934"
     d="m 233.03176,324.3923 c -8.0835,-0.98141 -9.8532,-1.71645 -15.5533,-6.46009 -10.0583,-8.3706 -18.8588,-24.20532 -20.1414,-36.24025 -0.2359,-2.21297 0.2109,-3.06002 1.9651,-3.72532 2.0964,-0.79511 2.5881,-0.21118 6.4166,7.62061 2.2804,4.66494 6.2104,11.04401 8.7334,14.17572 5.0937,6.32273 18.1711,18.05117 25.0254,22.44399 l 4.4458,2.84923 -3.9458,-0.14983 c -2.1702,-0.0824 -5.2958,-0.31374 -6.9458,-0.51406 z"
     style="fill:#000000" />
  <path
     id="path2932"
     d="m 113.01306,314.7995 c -5.4164,-5.55116 -6.2538,-6.95916 -7.4268,-12.48637 -1.5745,-7.41969 -1.0607,-8.38537 5.6856,-10.68405 2.5389,-0.86509 4.8948,-1.57289 5.2354,-1.57289 0.3406,0 0.4397,2.81964 0.2203,6.26587 -0.5741,9.01574 0.9801,13.73714 5.7959,17.6072 2.2045,1.77165 4.0083,3.57774 4.0083,4.01354 0,0.88946 -4.4673,3.11339 -6.254,3.11339 -0.638,0 -3.9071,-2.81551 -7.2647,-6.25669 z"
     style="fill:#000000" />
  <path
     id="path2930"
     d="m 197.53176,319.39005 c -5.9142,-0.93154 -6.9164,-1.57132 -10.2916,-6.56994 -4.8251,-7.14588 -6.451,-14.85138 -4.7508,-22.51392 1.9351,-8.72081 3.6155,-11.4343 6.8496,-11.06091 2.5904,0.29909 2.717,0.59597 3.3285,7.81091 0.7388,8.71624 4.4328,19.2196 9.4026,26.73462 1.9039,2.87903 3.4617,5.46653 3.4617,5.75 0,0.55722 -3.9815,0.4822 -8,-0.15076 z"
     style="fill:#000000" />
  <path
     id="path2928"
     d="m 131.79846,313.95818 c -7.3556,-3.63926 -10.3963,-14.80727 -6.2464,-22.94183 1.604,-3.14415 2.5828,-3.96297 4.75,-3.97381 1.5013,-0.008 3.8126,-0.30342 5.1362,-0.65756 2.291,-0.613 2.3701,-0.48036 1.6473,2.76365 -2.1702,9.73987 -2.4168,11.67558 -1.8794,14.75352 0.3341,1.9134 2.0416,4.80338 3.9882,6.75 1.8722,1.87222 3.2736,3.40404 3.1141,3.40404 -0.1594,0 -1.7174,0.4094 -3.4621,0.90977 -2.4566,0.70455 -4.0464,0.47722 -7.0479,-1.00778 z"
     style="fill:#000000" />
  <path
     id="path2926"
     d="m 167.89296,313.01154 c -4.632,-2.96756 -7.743,-10.82828 -7.0917,-17.91863 0.6232,-6.78526 3.3146,-12.68976 6.1286,-13.44515 1.156,-0.31034 3.4952,-0.57041 5.1982,-0.57792 l 3.0964,-0.0136 -1.8137,5.25 c -3.2287,9.34586 -2.1558,16.58739 3.5698,24.094 1.4032,1.83963 2.5512,3.63981 2.5512,4.00039 0,1.53484 -8.6947,0.49716 -11.6388,-1.38904 l 0,-5e-5 z"
     style="fill:#000000" />
  <path
     id="path2924"
     d="m 147.68996,311.20394 c -6.4065,-5.98455 -7.6757,-13.21967 -3.6964,-21.07231 2.2784,-4.49634 2.781,-4.8918 6.75,-5.31102 2.3585,-0.24912 4.6223,-0.27353 5.0308,-0.0543 0.4084,0.21927 -0.1541,2.15626 -1.25,4.30442 -3.4309,6.72499 -2.4677,12.72083 3.2385,20.16093 3.1451,4.10078 2.9803,4.3776 -2.807,4.7148 -3.3268,0.19384 -4.662,-0.31011 -7.2659,-2.74256 l 0,4e-5 z"
     style="fill:#000000" />
  <path
     id="path2922"
     d="m 440.77956,304.80619 c -0.5483,-0.6875 -1.928,-5.53428 -3.0658,-10.77063 -1.1378,-5.23634 -2.3674,-10.29884 -2.7324,-11.25 -0.4822,-1.25662 -0.156,-1.72923 1.1934,-1.72887 2.3046,6.3e-4 10.9259,3.24063 17.5361,6.59025 l 4.9776,2.52234 -0.7048,4.17162 c -0.3876,2.29439 -1.3492,5.15518 -2.1369,6.3573 -2.8531,4.35431 -12.724,7.04558 -15.0672,4.10799 z"
     style="fill:#000000" />
  <path
     id="path2920"
     d="m 248.03176,290.93416 c -12.2504,-2.82105 -28.4432,-9.49722 -34.927,-14.40014 -3.1432,-2.37686 -1.0199,-2.86371 5.1497,-1.18079 9.6383,2.62907 21.1056,3.95988 34.7773,4.036 14.4872,0.0807 20.1618,-1.05202 34.4639,-6.87914 10.946,-4.4598 19.2914,-10.25465 31.6109,-21.94997 5.5231,-5.24325 10.165,-8.92493 10.5228,-8.34604 1.404,2.2718 3.2245,19.10822 2.2405,20.72113 -2.3463,3.84572 -18.3135,15.40309 -27.257,19.72902 -17.1251,8.28337 -21.511,9.3505 -38.0811,9.26547 -7.975,-0.0409 -16.3,-0.48892 -18.5,-0.99554 z"
     style="fill:#000000" />
  <path
     style="fill:#000000"
     d="m 376.42546,249.35895 c -2.59079,0.0692 -5.09346,0.2453 -7.40625,0.5625 -9.3773,1.2861 -20.6742,6.5008 -29.75,13.71875 -5.6009,4.4544 -5.75,4.70853 -5.75,9.5 0,2.70544 0.27385,4.90625 0.59375,4.90625 0.32,0 3.278,-1.575 6.5625,-3.5 3.2845,-1.925 6.314,-3.5 6.75,-3.5 0.4361,0 2.1346,-0.66288 3.75,-1.46875 10.8326,-5.40402 32.48245,-6.68035 46.34375,-2.75 4.125,1.16963 10.80485,3.07285 14.84375,4.21875 4.0389,1.1459 9.53845,3.17304 12.21875,4.53125 5.5662,2.82059 5.9375,2.91679 5.9375,1.3125 0,-2.0809 -5.15085,-14.27327 -6.84375,-16.1875 -5.79381,-6.5512 -29.11445,-11.82831 -47.25,-11.34375 z"
     id="path2918" />
  <path
     id="path2916"
     d="m 223.99566,273.01341 c -9.7604,-1.27609 -12.932,-2.35921 -13.2519,-4.52559 -0.2714,-1.83761 0.3923,-1.95251 11.5,-1.99104 9.8473,-0.0342 13.4343,-0.50778 21.788,-2.87681 25.7863,-7.31276 45.6173,-21.82213 60.5318,-44.28799 1.9075,-2.87332 3.9182,-5.22815 4.4682,-5.23295 0.55,-0.005 4.0824,3.07545 7.8499,6.84501 l 6.8498,6.85374 -3.0878,4.26265 c -8.4708,11.69352 -23.47,24.6012 -35.6119,30.64595 -19.7016,9.8083 -39.4035,13.13532 -61.0361,10.30703 z"
     style="fill:#000000" />
  <path
     id="path2914"
     d="m 208.75606,259.64909 c -1.9795,-4.34441 -1.5257,-5.44994 2.5257,-6.15339 12.4786,-2.16666 25.4945,-6.67019 35.0123,-12.11435 11.2669,-6.44461 28.468,-24.98274 36.257,-39.07516 2.7009,-4.88671 3.7492,-5.14675 7.654,-1.89857 1.5547,1.29329 3.8392,2.88412 5.0767,3.53519 2.9876,1.57181 2.8468,2.85384 -0.9544,8.69194 -8.5927,13.19727 -23.2266,28.54922 -34.051,35.72179 -13.296,8.81035 -23.9892,12.39905 -39.7703,13.34718 l -10.5257,0.63238 -1.2243,-2.68701 z"
     style="fill:#000000" />
  <path
     style="fill:#000000"
     d="m 392.05046,225.54645 c -1.78244,0.004 -3.83594,0.0287 -6.21875,0.0312 -15.6736,0.0166 -17.3212,0.18469 -24.625,2.71875 -10.298,3.57294 -18.90735,8.2403 -24.40625,13.21875 -4.3902,3.97471 -4.4465,4.10515 -3.75,8.75 l 0.6875,4.71875 2.65625,-1.46875 c 3.0613,-1.71785 5.5596,-3.26035 9.25,-5.6875 5.4295,-3.571 17.65185,-7.60712 26.65625,-8.8125 8.8329,-1.18242 20.6568,-0.96396 34.5625,0.65625 l 5.84375,0.6875 -3.09375,-4.90625 c -5.89313,-9.39505 -5.08541,-9.93303 -17.5625,-9.90625 z"
     id="path2912" />
  <path
     id="path2910"
     d="m 202.31656,242.90371 c -0.9434,-2.39113 -1.9829,-5.07988 -2.31,-5.97498 -0.459,-1.25611 0.2556,-1.78698 3.1319,-2.32658 6.6641,-1.25019 16.7139,-5.80541 25.3267,-11.47964 11.8348,-7.79694 27.6492,-23.76081 33.8661,-34.18623 1.2726,-2.13405 2.4567,-3.88009 2.6312,-3.88009 1.2125,0 9.8293,5.51399 10.2239,6.54241 0.9298,2.42285 -13.973,24.44807 -21.3475,31.55008 -14.936,14.38407 -29.7929,22.29998 -44.3071,23.6072 l -5.5,0.49536 -1.7152,-4.34753 z"
     style="fill:#000000" />
  <path
     style="fill:#000000"
     d="m 386.92546,206.73395 -11.4375,1.28125 c -6.2963,0.69442 -13.94375,1.92899 -16.96875,2.75 -8.261,2.2421 -19.75065,8.62281 -26.46875,14.6875 l -6,5.40625 1.8125,3.75 1.78125,3.75 3.1875,-3 c 5.238,-4.89804 15.02445,-11.23508 20.65625,-13.375 6.8605,-2.60678 24.6214,-5.10309 33.75,-4.75 3.9569,0.15305 7.45735,0.0114 7.78125,-0.3125 0.324,-0.32395 -1.3655,-2.74124 -3.75,-5.375 l -4.34375,-4.8125 z"
     id="path2908" />
  <path
     id="path2906"
     d="m 196.08186,226.77302 c -1.7193,-2.62401 -3.9657,-8.64747 -3.4157,-9.15899 0.2011,-0.18703 4.7543,-2.38389 10.1182,-4.8819 16.1751,-7.53284 33.5279,-20.63085 41.6908,-31.46842 l 4.4433,-5.89932 4.3035,2.0959 c 2.367,1.15275 4.3049,2.594 4.3067,3.20278 0.011,3.82418 -21.718,27.66506 -31.0929,34.11516 -6.0105,4.1353 -22.7555,12.90127 -26.1235,13.67555 -2.1407,0.49215 -3.041,0.13446 -4.2304,-1.68076 z"
     style="fill:#000000" />
  <path
     style="fill:#000000"
     d="m 375.11296,194.17145 c -0.66124,0.0174 -1.4653,0.0956 -2.46875,0.21875 -7.5848,0.93078 -23.14555,6.36953 -30.46875,10.65625 -3.7735,2.20885 -7.18845,4 -7.59375,4 -1.0877,0 -12.0625,11.6835 -12.0625,12.84375 0,0.54584 0.2923,1.72692 0.625,2.59375 0.7008,1.82624 1.13065,1.59342 8.09375,-4.0625 6.5958,-5.35749 12.398,-8.7535 20.4375,-11.96875 7.9676,-3.18651 20.28245,-7.1912 24.59375,-8 4.1366,-0.77603 4.58735,-1.49751 2.59375,-4.34375 -1.0458,-1.49313 -1.76629,-1.98963 -3.75,-1.9375 z"
     id="path2904" />
  <path
     style="fill:#000000"
     d="m 384.89421,174.2027 c -5.36261,0.14963 -21.69513,5.4569 -31.75,10.4375 -11.3287,5.61161 -25.56435,15.78528 -34.03125,24.3125 -4.2159,4.24592 -4.7373,5.19096 -3.625,6.53125 1.8365,2.21287 3.3388,1.96836 6.125,-1.03125 7.6272,-8.21158 33.66405,-23.24131 46.40625,-26.78125 13.2801,-3.68938 20.0902,-5.82249 20.75,-6.46875 1.4246,-1.3955 -0.82035,-6.65273 -2.96875,-6.96875 -0.25495,-0.0375 -0.54874,-0.0412 -0.90625,-0.0312 z"
     id="path2902" />
  <path
     style="fill:#000000"
     d="m 369.70671,162.04645 c -1.0458,0 -5.81345,1.85363 -10.59375,4.09375 -21.1436,9.90823 -38.69655,23.30172 -49.96875,38.15625 -2.3393,3.08263 -2.6461,4.01966 -1.625,5.25 2.0242,2.43903 3.23495,1.84336 10.03125,-5.0625 7.9163,-8.04393 16.36385,-14.81571 24.96875,-20 7.6506,-4.60932 23.4081,-12.33271 30.5,-14.9375 2.75,-1.01005 5.397,-2.14797 5.875,-2.5625 1.0371,-0.89952 -6.4686,-4.9375 -9.1875,-4.9375 z"
     id="path2900" />
  <path
     id="path2898"
     d="m 186.96086,204.50977 c -1.0152,-2.65826 -1.361,-4.88133 -0.8327,-5.35284 0.497,-0.44353 7.2036,-4.06726 14.9036,-8.05273 7.7,-3.98546 15.9351,-8.55169 18.3001,-10.14716 2.3651,-1.59547 4.5871,-2.90085 4.9378,-2.90085 0.3507,0 3.1406,-1.95672 6.1999,-4.34826 8.2069,-6.41579 9.4823,-6.95004 11.4363,-4.79082 0.8943,0.98811 1.6259,2.28376 1.6259,2.87923 0,1.36961 -12.3202,12.75662 -17.0903,15.79582 -1.9747,1.25812 -4.2247,2.91768 -5,3.68789 -3.2547,3.23323 -29.2724,17.77614 -31.802,17.77614 -0.5183,0 -1.7236,-2.04589 -2.6786,-4.54642 z"
     style="fill:#000000" />
  <path
     style="fill:#000000"
     d="m 334.89421,162.23395 c -0.95518,0.0176 -1.71307,0.72157 -3.40625,2.34375 -2.4086,2.30706 -2.9117,3.46565 -2.4375,5.625 0.6665,3.03445 -2.19645,6.80263 -5.28125,6.9375 -5.281,0.23089 -5.62135,0.49311 -12.96875,9.25 -4.687,5.586 -11.4448,16.57064 -10.8125,17.59375 0.3632,0.5876 0.8982,1.0625 1.1875,1.0625 0.2893,0 7.3468,-6.8625 15.6875,-15.25 8.3407,-8.3875 17.2795,-16.825 19.875,-18.75 2.5955,-1.925 4.733,-4.0536 4.75,-4.75 0.017,-0.6964 -1.54305,-2.01918 -3.46875,-2.9375 -1.52158,-0.72558 -2.38209,-1.13869 -3.125,-1.125 z"
     id="path2896" />
  <path
     style="fill:#000000"
     d="m 308.26921,174.67145 c -0.97709,-0.0429 -1.67456,0.8067 -3.40625,2.96875 -1.5583,1.9456 -4.86275,5.86141 -7.34375,8.71875 -9.3572,10.77701 -8.72095,9.68011 -6.53125,11.28125 1.0603,0.77532 2.30925,1.40625 2.78125,1.40625 1.7215,0 19.75,-19.31318 19.75,-21.15625 0,-0.43688 -1.30205,-1.45169 -2.90625,-2.28125 -1.06961,-0.55311 -1.7575,-0.91175 -2.34375,-0.9375 z"
     id="path2894" />
  <path
     id="path2892"
     d="m 281.88696,191.53953 c -0.3426,-0.89299 1.4725,-4.49111 4.414,-8.75 4.9946,-7.23124 13.4878,-23.92486 14.7686,-29.02809 0.5925,-2.36058 1.1748,-2.70525 4.5706,-2.70525 4.224,0 4.5305,0.5996 2.7757,5.429 -0.6625,1.8233 -2.3892,3.68043 -4.25,4.571 -3.3355,1.5964 -4.6119,5.11686 -2.6934,7.42857 1.0966,1.32126 0.7785,1.89933 -8.134,14.78578 -6.4167,9.27779 -10.056,11.90565 -11.4515,8.26899 z"
     style="fill:#000000" />
  <path
     id="path2890"
     d="m 179.12576,183.37805 c -0.8767,-2.57298 -1.594,-5.49233 -1.594,-6.48745 0,-5.42236 23.7067,-13.37008 47.3779,-15.88355 8.9917,-0.95477 11.0263,-0.9206 11.7337,0.19705 1.3348,2.10865 0.6665,2.88521 -4.1394,4.80988 -24.0421,9.62849 -31.7626,12.96219 -39.7468,17.16277 -5.1011,2.68369 -9.8963,4.87944 -10.656,4.87944 -0.7598,0 -2.0987,-2.10516 -2.9754,-4.67814 z"
     style="fill:#000000" />
  <path
     id="path2888"
     d="m 273.76856,186.89297 c -0.8843,-0.88429 -0.1343,-2.63509 3.1277,-7.30143 2.36,-3.37602 4.9722,-7.46507 5.805,-9.08678 0.8327,-1.62171 2.4622,-4.74857 3.6211,-6.94857 1.1588,-2.2 3.014,-6.1375 4.1226,-8.75 1.4731,-3.47135 2.5688,-4.75 4.0703,-4.75 1.7384,0 1.9507,0.42321 1.3794,2.75 -2.3212,9.45339 -17.2044,35.25 -20.3372,35.25 -0.3441,0 -1.1492,-0.52345 -1.7889,-1.16322 z"
     style="fill:#000000" />
  <path
     id="path2886"
     d="m 265.81636,181.94077 c -0.8206,-0.82055 -0.2443,-2.34057 2.1799,-5.75 3.542,-4.9814 10.9581,-19.98578 12.0722,-24.42471 0.5023,-2.00151 1.3053,-2.70987 3.0717,-2.70987 2.9219,0 2.9579,0.95805 0.3184,8.46806 -2.8649,8.15113 -4.9858,12.08201 -10.4175,19.30773 -4.9185,6.54305 -5.4293,6.90423 -7.2247,5.10879 z"
     style="fill:#000000" />
  <path
     id="path2884"
     d="m 260.22966,178.30619 c -0.231,-0.4125 1.4762,-5.50159 3.7939,-11.3091 2.3177,-5.8075 4.5256,-12.22 4.9064,-14.25 0.6126,-3.26552 1.0329,-3.6909 3.6471,-3.6909 1.6251,0 2.9547,0.51309 2.9547,1.1402 0,3.26755 -5.7216,17.66613 -9.0924,22.88151 -3.6407,5.6328 -5.2324,6.97298 -6.2097,5.22829 z"
     style="fill:#000000" />
  <path
     id="path2882"
     d="m 254.87056,175.49675 c -0.3291,-0.8577 1.0065,-5.0202 2.9682,-9.25 1.9616,-4.22981 3.8711,-9.82806 4.2433,-12.44056 0.5341,-3.74886 1.0744,-4.75 2.5632,-4.75 1.0376,0 1.8865,0.6276 1.8865,1.39466 0,2.30236 -3.9999,14.7073 -6.7247,20.85534 -2.6037,5.87467 -3.8758,6.95459 -4.9365,4.19056 z"
     style="fill:#000000" />
  <path
     style="fill:#000000"
     d="m 324.70671,166.7027 c -2.01924,0.36055 -8.1875,7.14159 -8.1875,9.21875 0,2.14894 2.16585,1.15482 6.09375,-2.8125 4.2481,-4.29074 4.7041,-5.53645 2.4375,-6.40625 -0.0947,-0.0363 -0.20913,-0.024 -0.34375,0 z"
     id="path2880" />
  <path
     id="path2878"
     d="m 249.01486,172.0288 c -0.3493,-0.56507 0.2395,-2.92757 1.3084,-5.25 3.9358,-8.55176 5.0127,-11.29461 5.6825,-14.47261 0.7551,-3.58292 3.526,-4.5028 3.526,-1.17056 0,3.51453 -8.0103,21.92056 -9.5398,21.92056 -0.1882,0 -0.6279,-0.46233 -0.9771,-1.02739 z"
     style="fill:#000000" />
  <path
     id="path2876"
     d="m 304.48326,170.4978 c -1.0745,-1.29477 -0.9283,-2.30971 0.8646,-6 1.9448,-4.00308 2.5047,-4.44161 5.6709,-4.44161 4.3852,0 4.4557,1.23392 0.4188,7.32856 -3.2745,4.94348 -4.8499,5.6487 -6.9543,3.11305 z"
     style="fill:#000000" />
  <path
     id="path2874"
     d="m 243.53176,168.42422 c 0,-0.34758 0.9607,-2.18644 2.1349,-4.08637 1.1743,-1.89992 2.9177,-5.98419 3.8744,-9.07614 1.9583,-6.32948 4.7491,-8.74761 3.6284,-3.14393 -1.9748,9.87386 -5.3627,16.93841 -8.123,16.93841 -0.8331,0 -1.5147,-0.28438 -1.5147,-0.63197 z"
     style="fill:#000000" />
  <path
     id="path2872"
     d="m 174.05486,163.80619 c -1.1288,-3.40743 -2.5126,-9.4425 -2.5175,-10.97968 -0.012,-3.82994 14.585,-7.77032 28.7856,-7.77032 6.8105,0 16.8102,2.01356 23.7121,4.77472 10.6337,4.2541 16.3771,9.14087 9.2467,7.86745 -1.7875,-0.31923 -8.1132,-1.06224 -14.0572,-1.65114 -16.2427,-1.60925 -29.0699,0.5237 -39.3381,6.54126 -4.8326,2.8321 -5.2667,2.92275 -5.8316,1.21771 z"
     style="fill:#000000" />
  <path
     id="path2870"
     d="m 344.53176,164.13374 c 0,-0.50734 1.5008,-1.41775 3.335,-2.02311 6.7179,-2.21709 10.665,-8.55306 10.665,-17.11954 0,-2.71419 0.4197,-4.9349 0.9326,-4.9349 2.6404,0 3.1152,12.07313 0.6614,16.81816 -2.5277,4.88818 -7.2259,8.18184 -11.6707,8.18184 -2.1578,0 -3.9233,-0.4151 -3.9233,-0.92245 z"
     style="fill:#000000" />
  <path
     id="path2868"
     d="m 239.97746,162.96837 c -1.1,-1.77983 4.7648,-12.90721 6.8043,-12.90988 2.5769,-0.003 2.1596,2.96029 -1.1522,8.18248 -3.2963,5.19774 -4.6577,6.33637 -5.6521,4.7274 z"
     style="fill:#000000" />
  <path
     style="fill:#000000"
     d="m 320.17546,154.6402 c -0.82767,0.083 -1.32781,0.80836 -2.21875,2.53125 -0.8715,1.68525 -1.4281,3.20098 -1.25,3.34375 0.178,0.14278 1.2125,0.76061 2.3125,1.375 3.0413,1.6987 3.9298,1.4371 5.8125,-1.75 1.8104,-3.06478 1.63375,-3.40021 -2.65625,-5.03125 -0.88838,-0.33777 -1.5034,-0.51856 -2,-0.46875 z"
     id="path2866" />
  <path
     id="path2864"
     d="m 343.03176,159.58719 c 1.65,-1.35249 3.3185,-2.47526 3.7078,-2.49504 0.3894,-0.0198 1.9161,-2.09763 3.3928,-4.61745 2.524,-4.3068 2.6486,-5.09695 2.0783,-13.17819 -0.5547,-7.86047 -0.4704,-8.46041 0.9845,-7.00549 2.0927,2.0927 2.9328,13.88461 1.3943,19.57121 -0.9409,3.47786 -2.0578,4.87224 -5.8071,7.25 -2.5532,1.61918 -5.5666,2.94172 -6.6964,2.93899 -1.8172,-0.004 -1.7081,-0.28863 0.9458,-2.46403 z"
     style="fill:#000000" />
  <path
     id="path2862"
     d="m 334.27086,158.462 c -0.3268,-0.3268 0.9177,-1.92158 2.7654,-3.54395 1.8478,-1.62236 4.3428,-4.98062 5.5444,-7.46278 1.8946,-3.91373 2.1298,-5.767 1.7717,-13.95605 -0.2272,-5.19367 -0.071,-9.44303 0.348,-9.44303 1.8526,0 3.1164,5.01508 3.1373,12.44895 0.017,6.20485 -0.4764,9.12219 -2.1535,12.72217 -3.0173,6.47644 -9.1828,11.46513 -11.4133,9.23469 z"
     style="fill:#000000" />
  <path
     id="path2860"
     d="m 327.53176,154.43821 c 0,-0.3399 1.338,-2.1419 2.9734,-4.00446 4.3923,-5.00255 6.3432,-12.87149 5.8337,-23.52928 -0.2327,-4.86656 -0.092,-8.84828 0.3135,-8.84828 3.3683,0 5.5758,9.25208 4.3544,18.25 -0.8564,6.30916 -3.1883,11.12491 -7.5054,15.5 -2.8733,2.91189 -5.9696,4.27707 -5.9696,2.63202 z"
     style="fill:#000000" />
  <path
     id="path2858"
     d="m 233.03176,150.73065 c -5.2052,-3.99647 -14.2227,-8.59552 -21.9198,-11.17935 -6.2826,-2.10899 -9.2912,-2.49511 -19.4414,-2.49511 -6.6047,0 -13.2253,0.46259 -14.7124,1.02798 -1.4871,0.56539 -2.9494,0.78234 -3.2496,0.48212 -0.3003,-0.30022 0.9997,-3.74573 2.8887,-7.65669 l 3.4345,-7.11083 10,0.56154 c 13.0402,0.73226 20.1679,2.7468 29.4294,8.31784 8.4344,5.07351 20.0706,15.85663 20.0706,18.59915 0,2.46761 -2.8907,2.2245 -6.5,-0.54665 z"
     style="fill:#000000" />
  <path
     id="path2856"
     d="m 319.08406,151.14086 c -0.3111,-0.50343 0.5013,-2.19093 1.8055,-3.75 1.3041,-1.55907 3.389,-5.6379 4.6331,-9.06408 1.9291,-5.31255 2.1742,-7.44669 1.665,-14.5 -0.3283,-4.54882 -0.8934,-9.78159 -1.2558,-11.62838 l -0.6587,-3.35778 2.5453,1.66778 c 3.3939,2.22378 3.8323,3.56889 4.4481,13.64788 0.653,10.68661 -1.1564,16.82512 -6.8738,23.32043 -4.0736,4.62791 -5.28,5.32859 -6.3087,3.66415 z"
     style="fill:#000000" />
  <path
     id="path2854"
     d="m 315.39796,143.80619 c 2.2904,-5.43517 2.6302,-7.61891 2.606,-16.75 -0.017,-6.47928 -0.7202,-13.49851 -1.8361,-18.33054 -0.9946,-4.30679 -1.6133,-8.0256 -1.3749,-8.264 0.2384,-0.23841 1.5929,0.47854 3.01,1.59321 4.1485,3.26326 6.0936,10.8366 6.0358,23.50133 -0.055,12.02253 -1.3809,16.76092 -6.0871,21.75 -4.3726,4.63545 -5.239,3.34708 -2.3537,-3.5 z"
     style="fill:#000000" />
  <path
     id="path2852"
     d="m 239.13166,144.30619 c -2.9789,-5.81407 -11.301,-15.24295 -15.2149,-17.23843 -1.5867,-0.80901 -4.235,-2.42235 -5.885,-3.58521 -4.3911,-3.09467 -15.0837,-7.19101 -22.25,-8.52401 -3.4375,-0.63941 -6.25,-1.50165 -6.25,-1.91609 0,-0.63575 5.1096,-5.39213 9.7802,-9.10405 3.2563,-2.58799 22.5669,7.52976 29.5726,15.49451 6.3958,7.27142 10.7073,14.04197 13.0116,20.43288 3.0574,8.4795 3.1466,9.1904 1.1524,9.1904 -0.8157,0 -2.5783,-2.1375 -3.9169,-4.75 z"
     style="fill:#000000" />
  <path
     id="path2850"
     d="m 298.53176,147.50653 c 0,-0.30231 0.6685,-1.84231 1.4855,-3.42222 3.6469,-7.05237 6.934,-21.70804 5.8223,-25.95914 -0.4323,-1.65302 -0.8483,-1.86528 -1.9172,-0.97818 -2.7193,2.25681 -4.3906,0.2597 -4.3906,-5.24651 l 0,-5.21847 3.1188,2.93709 c 2.5914,2.44048 3.0289,2.59893 2.5873,0.93709 -0.2923,-1.1 -1.0565,-4.475 -1.6983,-7.5 -0.6417,-3.025 -1.8248,-7.24367 -2.6291,-9.37482 -0.8043,-2.13115 -1.2393,-4.0979 -0.9667,-4.37055 0.2727,-0.27266 2.3028,0.93547 4.5114,2.68472 4.4777,3.54637 5.2579,5.55934 7.7414,19.9715 1.3507,7.83835 1.4222,10.49325 0.4281,15.88852 -1.925,10.44724 -7.5552,20.20063 -11.661,20.20063 -1.3375,0 -2.4319,-0.24735 -2.4319,-0.54966 z"
     style="fill:#000000" />
  <path
     id="path2848"
     d="m 247.96356,144.30619 c -1.7752,-8.05133 -3.928,-14.35081 -6.6709,-19.52072 -3.6749,-6.92653 -13.5377,-16.449 -23.5416,-22.72928 -3.9425,-2.475 -7.1796,-4.84239 -7.1937,-5.26086 -0.014,-0.41848 2.4321,-1.96626 5.436,-3.43951 5.014,-2.45906 5.6827,-2.56064 8.158,-1.23914 2.6593,1.41979 14.5218,15.07767 17.3184,19.93951 5.1898,9.02254 6.2753,11.5141 8.0653,18.5129 2.4358,9.52391 2.6536,16.4871 0.5157,16.4871 -0.8145,0 -1.7538,-1.2375 -2.0872,-2.75 z"
     style="fill:#000000" />
  <path
     id="path2846"
     d="m 267.24316,146.30619 c -0.2237,-0.4125 -0.4735,-4.71812 -0.5551,-9.56804 -0.1526,-9.06223 -2.8184,-21.84081 -6.0879,-29.18196 -0.9798,-2.2 -3.8778,-7.10724 -6.4401,-10.90497 -3.0033,-4.45148 -5.5849,-9.95898 -7.2657,-15.5 -1.4339,-4.72727 -3.7191,-10.50628 -5.0782,-12.84225 -2.3806,-4.09151 -10.6567,-12.25278 -12.4252,-12.25278 -0.4726,0 -0.8592,-0.45 -0.8592,-1 0,-1.77906 7.9597,-1.06015 12.2898,1.11002 8.4023,4.21099 12.2525,9.47597 15.1737,20.74924 0.8892,3.43162 3.6261,10.94363 6.082,16.69337 7.4833,17.52005 9.5369,26.08579 9.5278,39.73992 0,6.48591 -0.2742,12.22341 -0.5996,12.75 -0.7026,1.13691 -3.1842,1.27373 -3.7623,0.20745 z"
     style="fill:#000000" />
  <path
     id="path2844"
     d="m 276.49696,146.87261 c -0.019,-0.17403 -0.2333,-6.74408 -0.4759,-14.6001 -0.7277,-23.56461 -5.2596,-41.62349 -15.008,-59.80428 -2.5392,-4.73551 -4.3761,-8.85059 -4.082,-9.14463 1.0416,-1.04162 14.1257,7.59168 15.7473,10.39056 1.9973,3.44736 7.8534,21.95145 7.8534,24.81514 0,1.16951 -0.968,2.47734 -2.25,3.03976 -3.658,1.60483 -3.2538,4.58926 1.2119,8.94994 l 4.0381,3.94309 -0.099,10.54705 c -0.054,5.80088 -0.3919,13.02205 -0.75,16.04705 -0.6,5.06792 -0.8671,5.52486 -3.4011,5.81642 -1.5125,0.17403 -2.7657,0.17403 -2.7848,0 l 10e-5,0 z"
     style="fill:#000000" />
  <path
     id="path2842"
     d="m 286.54366,146.30619 c 0.01,-0.4125 0.6413,-3.11435 1.4105,-6.00412 0.7693,-2.88976 1.7172,-9.07726 2.1064,-13.75 0.7644,-9.17586 1.0739,-9.513 7.2212,-7.86559 3.248,0.87043 2.9871,7.04484 -0.797,18.85775 l -3.0469,9.51196 -3.4531,0 c -1.8991,0 -3.4477,-0.3375 -3.4411,-0.75 z"
     style="fill:#000000" />
  <path
     id="path2840"
     d="m 256.29886,137.12272 c -3.096,-15.94946 -11.7994,-32.34972 -26.3043,-49.56653 -11.1293,-13.21021 -13.2895,-18.56517 -10.4753,-25.96706 0.9518,-2.50355 1.0918,-2.54329 3.8801,-1.10141 7.905,4.08785 10.9405,8.35467 15.6378,21.98116 1.5002,4.35198 4.2774,10.33543 6.1716,13.29655 8.5392,13.34887 15.5874,31.82421 16.8013,44.04076 0.5997,6.03547 0.5421,6.24988 -1.6786,6.24665 -2.0979,-0.003 -2.4518,-0.78667 -4.0326,-8.93012 z"
     style="fill:#000000" />
  <path
     id="path2838"
     d="m 285.14686,114.76405 c -1.2255,-0.89613 -1.9396,-3.19472 -2.33,-7.5 -0.5572,-6.14471 -0.5368,-6.20786 2.0046,-6.20786 4.185,0 5.7103,2.42316 5.7103,9.07143 0,5.05309 -0.2671,5.92857 -1.8089,5.92857 -0.9949,0 -2.604,-0.58146 -3.576,-1.29214 z"
     style="fill:#000000" />
  <path
     id="path3451"
     d="m 293.30626,102.57791 c -3.4016,-1.83647 -3.8618,-2.61033 -5.2923,-8.89987 -0.8617,-3.78867 -2.2287,-8.4726 -3.0376,-10.40871 -0.809,-1.93612 -1.2636,-3.72746 -1.0103,-3.98075 0.6206,-0.62067 6.8138,3.26247 8.7485,5.48532 1.7626,2.02517 5.1545,15.11645 4.65,17.94735 -0.3215,1.80481 -0.4589,1.79996 -4.0583,-0.14334 z"
     style="fill:#000000" />
</svg>
